<?xml version="1.0" encoding="UTF-8" standalone="no"?>
<svg
   version="1.1"
   x="0px"
   y="0px"
   viewBox="0 0 50.257 72.506272"
   enable-background="new 0 0 64 64"
   xml:space="preserve"
   id="svg16"
   sodipodi:docname="microscope-blue.svg"
   width="50.257"
   height="72.506271"
   inkscape:version="1.2.1 (9c6d41e410, 2022-07-14)"
   xmlns:inkscape="http://www.inkscape.org/namespaces/inkscape"
   xmlns:sodipodi="http://sodipodi.sourceforge.net/DTD/sodipodi-0.dtd"
   xmlns="http://www.w3.org/2000/svg"
   xmlns:svg="http://www.w3.org/2000/svg"><defs
     id="defs20"><filter
       inkscape:label="In and Out"
       inkscape:menu="Shadows and Glows"
       inkscape:menu-tooltip="Inner colorized shadow, outer black shadow"
       style="color-interpolation-filters:sRGB;"
       id="filter313"
       x="-0.221931"
       y="-0.15382926"
       width="1.5594511"
       height="1.3877779"><feGaussianBlur
         result="result0"
         in="SourceAlpha"
         stdDeviation="4"
         id="feGaussianBlur307" /><feOffset
         dx="5"
         dy="5"
         result="result4"
         id="feOffset309" /><feComposite
         in="SourceGraphic"
         in2="result4"
         operator="xor"
         result="result3"
         id="feComposite311" /></filter></defs><sodipodi:namedview
     id="namedview18"
     pagecolor="#505050"
     bordercolor="#ffffff"
     borderopacity="1"
     inkscape:showpageshadow="0"
     inkscape:pageopacity="0"
     inkscape:pagecheckerboard="1"
     inkscape:deskcolor="#505050"
     showgrid="false"
     inkscape:zoom="11.745505"
     inkscape:cx="21.242169"
     inkscape:cy="44.229686"
     inkscape:window-width="1920"
     inkscape:window-height="991"
     inkscape:window-x="-9"
     inkscape:window-y="-9"
     inkscape:window-maximized="1"
     inkscape:current-layer="svg16" /><g
     id="g10"
     transform="translate(-6.8708443,4.2525625)"
     style="filter:url(#filter313);fill:#3182ce;fill-opacity:1"><path
       fill="#000000"
       d="m 45.115,15.423 c -0.672,1.061 -1.348,2.121 -2.028,3.177 -0.932,-0.598 -2.023,-0.934 -3.156,-0.934 -0.596,0 -1.187,0.093 -1.76,0.276 -2.863,0.913 -4.551,3.643 -4.106,6.64 0.248,1.667 1.259,3.088 2.669,3.964 -0.913,1.419 -1.824,2.83 -2.743,4.236 -0.352,0.539 -0.85,0.602 -1.387,0.257 -2.267,-1.45 -4.536,-2.899 -6.794,-4.364 -0.633,-0.409 -0.683,-0.854 -0.233,-1.554 2.902,-4.534 5.81,-9.065 8.715,-13.595 0.767,-1.197 1.523,-2.402 2.3,-3.591 0.487,-0.746 0.896,-0.824 1.65,-0.343 2.162,1.378 4.321,2.762 6.479,4.147 0.809,0.519 0.905,0.88 0.394,1.684 z"
       id="path2"
       style="fill:#3182ce;fill-opacity:1" /><path
       fill="#000000"
       d="m 39.317,8.025 c 0.966,-1.478 1.991,-3.044 3.012,-4.612 0.429,-0.658 0.841,-1.328 1.277,-1.981 0.47,-0.704 0.832,-0.81 1.52,-0.38 1.526,0.954 3.034,1.937 4.546,2.913 0.573,0.369 0.68,0.864 0.318,1.433 -1.439,2.266 -2.888,4.527 -4.312,6.756 -2.116,-1.373 -4.187,-2.717 -6.361,-4.129 z"
       id="path4"
       style="fill:#3182ce;fill-opacity:1" /><path
       fill="#000000"
       d="m 25.053,30.375 c 2.156,1.378 4.221,2.698 6.38,4.079 -0.715,1.083 -1.441,2.208 -2.195,3.313 -0.321,0.47 -0.796,0.553 -1.269,0.257 -1.589,-0.995 -3.17,-2.003 -4.738,-3.03 -0.493,-0.323 -0.605,-0.8 -0.278,-1.319 0.7,-1.114 1.412,-2.22 2.1,-3.3 z"
       id="path6"
       style="fill:#3182ce;fill-opacity:1" /><path
       fill="#000000"
       d="m 50.026,59.835 c -0.942,-0.831 -1.961,-1.573 -3.036,-2.238 -0.609,-0.377 -1.252,-0.72 -1.895,-1.041 -0.199,-0.1 -0.399,-0.199 -0.609,-0.299 1.274,-1.108 2.604,-2.094 3.656,-3.313 5.54,-6.382 6.947,-13.583 3.933,-21.56 -1.396,-3.667 -3.701,-6.648 -6.88,-8.963 -0.321,-0.233 -0.598,-0.609 -0.776,-0.975 -1.075,-2.238 -3.612,-3.368 -5.972,-2.626 -2.426,0.776 -3.845,3.08 -3.468,5.628 0.355,2.371 2.548,4.122 5.085,4.11 0.454,-0.011 1.064,0 1.363,0.266 3.833,3.435 5.595,7.689 4.509,12.808 -1.54,7.29 -8.033,11.611 -15.378,10.381 -2.116,-0.366 -4.033,-1.23 -5.662,-2.814 0.676,0 1.341,0.022 2.016,-0.011 1.374,-0.044 2.183,-0.798 2.183,-1.994 -0.011,-1.252 -0.842,-2.005 -2.249,-2.005 -2.005,-0.011 -4.011,-0.011 -6.016,-0.011 -2.748,0 -5.495,-0.011 -8.243,0.011 -1.252,0.011 -2.216,0.92 -2.216,2.028 0,1.119 0.842,1.906 2.138,1.972 0.676,0.033 1.363,-0.033 2.028,0.044 0.31,0.033 0.698,0.255 0.853,0.499 1.462,2.46 3.401,4.454 5.728,6.083 0.144,0.111 0.288,0.211 0.454,0.343 -0.244,0.111 -0.487,0.233 -0.72,0.343 -0.997,0.499 -1.95,1.053 -2.87,1.673 -0.443,0.31 -0.886,0.632 -1.307,0.964 -0.233,0.188 -0.476,0.41 -0.72,0.62 -0.177,0.155 -0.421,0.277 -0.454,0.521 -0.033,0.299 0.011,0.643 0,0.953 0,0.654 -0.011,1.307 -0.011,1.972 h 35.088 v -2.792 c -0.011,-0.022 -0.011,-0.044 -0.022,-0.055 -0.12,-0.223 -0.342,-0.345 -0.53,-0.522 z M 39.999,26.076 c -1.451,0.022 -2.581,-1.03 -2.604,-2.426 -0.033,-1.44 0.997,-2.537 2.426,-2.57 1.462,-0.033 2.493,0.953 2.526,2.437 0.034,1.384 -1.03,2.537 -2.348,2.559 z"
       id="path8"
       style="fill:#3182ce;fill-opacity:1" /></g></svg>
